<svg width="16" height="16" viewBox="0 0 16 16" fill="none" xmlns="http://www.w3.org/2000/svg">
<g clip-path="url(#clip0_2_586)">
<path fill-rule="evenodd" clip-rule="evenodd" d="M9.31934 3.88277C7.93768 2.50112 5.69757 2.50112 4.31591 3.88277C2.93425 5.26443 2.93425 7.50455 4.31591 8.88621C5.69757 10.2679 7.93768 10.2679 9.31934 8.88621C10.701 7.50455 10.701 5.26443 9.31934 3.88277ZM3.60113 3.168C5.37755 1.39158 8.2577 1.39158 10.0341 3.168C11.6897 4.82362 11.8023 7.43795 10.3719 9.22396L12.7446 11.5967C12.942 11.7941 12.942 12.1141 12.7446 12.3115C12.5472 12.5089 12.2272 12.5089 12.0298 12.3115L9.6571 9.93874C7.87109 11.3692 5.25675 11.2566 3.60113 9.60098C1.82471 7.82456 1.82471 4.94442 3.60113 3.168Z" fill="#9C9C9C" stroke="#9C9C9C" stroke-width="0.4" stroke-linecap="round" stroke-linejoin="round"/>
</g>
<defs>
<clipPath id="clip0_2_586">
<rect width="16" height="16" fill="white"/>
</clipPath>
</defs>
</svg>
